<?xml version="1.0" standalone="no"?><!DOCTYPE svg PUBLIC "-//W3C//DTD SVG 1.1//EN" "http://www.w3.org/Graphics/SVG/1.1/DTD/svg11.dtd"><svg t="1709702555910" class="icon" viewBox="0 0 1024 1024" version="1.1" xmlns="http://www.w3.org/2000/svg" p-id="22301" xmlns:xlink="http://www.w3.org/1999/xlink" width="200" height="200"><path d="M0 104.789333A104.789333 104.789333 0 0 1 104.96 0.085333h814.933333A104.618667 104.618667 0 0 1 1024 104.789333v814.165334a104.618667 104.618667 0 0 1-104.106667 104.704H104.96A104.874667 104.874667 0 0 1 0 918.954667V104.789333z m465.92 647.68a55.722667 55.722667 0 0 0 81.92 0l371.2-389.546666a64.085333 64.085333 0 0 0 0-86.869334 54.613333 54.613333 0 0 0-81.066667-0.512L509.44 623.872l-327.68-348.16a55.808 55.808 0 0 0-81.92 0 63.232 63.232 0 0 0 0 86.869333l366.08 389.717334z" fill="#a4a5b3" p-id="22302"></path></svg>