<svg t="1725297648632" class="icon" viewBox="0 0 1024 1024" version="1.1" xmlns="http://www.w3.org/2000/svg" p-id="27684" width="200" height="200"><path d="M512 61C264.58 61 64 261.58 64 509s200.58 448 448 448 448-200.58 448-448S759.42 61 512 61z m263 711a370.52 370.52 0 1 1 79.8-118.22A370.77 370.77 0 0 1 775 772z" p-id="27685"></path><path d="M437.83 279.79a40 40 0 0 0-44.92 19.57l-97.08 175.77a8 8 0 0 0 7 11.87h54.83a8 8 0 0 0 7-4.13L404 411.66V722a8 8 0 0 0 8 8h48a8 8 0 0 0 8-8V318.57a40 40 0 0 0-30.17-38.78zM722.92 523h-54.84a8 8 0 0 0-7 4.13L622 597.89V288a8 8 0 0 0-8-8h-48a8 8 0 0 0-8 8v403a40 40 0 0 0 75.08 19.22l96.84-175.34a8 8 0 0 0-7-11.88z" p-id="27686"></path></svg>