<?xml version="1.0" standalone="no"?><!DOCTYPE svg PUBLIC "-//W3C//DTD SVG 1.1//EN" "http://www.w3.org/Graphics/SVG/1.1/DTD/svg11.dtd"><svg t="1709704638629" class="icon" viewBox="0 0 1024 1024" version="1.1" xmlns="http://www.w3.org/2000/svg" p-id="40211" xmlns:xlink="http://www.w3.org/1999/xlink" width="200" height="200"><path d="M0 512v512h1024V0H0v512z m322.048-395.776c9.216 9.728 34.304 65.024 76.288 168.96C432.64 370.176 460.8 442.88 460.8 445.952c0 9.728-20.992 30.208-31.232 30.208-12.8 0-27.648-20.992-43.008-61.44l-13.824-35.84H211.456l-16.384 44.032c-18.944 50.176-31.744 60.928-54.272 46.08-7.168-4.608-12.8-13.312-12.8-18.944 0-11.776 114.688-307.712 126.464-326.144 15.36-24.064 47.104-27.648 67.584-7.68z m396.8 33.28c7.168 10.24 8.192 49.664 8.192 326.656v314.88l62.976-62.976c58.88-58.88 64.512-62.976 80.896-61.44 13.312 1.024 18.432 4.608 22.016 15.872 5.12 13.824 1.536 17.92-89.088 108.544-76.288 76.8-97.28 94.72-108.544 94.72-8.704 0-15.872-3.584-19.456-9.728-7.168-13.824-7.168-714.24 0-728.064 7.68-13.824 32.768-12.8 43.008 1.536z m-305.152 419.84c9.728 9.728 7.168 39.424-5.12 56.32-6.144 8.704-55.808 69.12-110.592 134.144l-99.84 118.272 119.808 2.56 119.808 2.56v30.72l-145.408 1.536c-130.048 1.024-146.432 0.512-155.136-7.168-5.12-5.12-9.216-13.824-9.216-20.48 0-7.68 38.4-57.344 112.64-146.432l113.152-134.656-96.256-2.56c-52.736-1.536-99.328-4.608-102.4-6.656-7.168-4.608-9.216-25.088-3.072-30.72 6.144-6.656 254.976-4.096 261.632 2.56z" p-id="40212" fill="#a4a5b3"></path><path d="M257.536 249.344l-30.208 86.016 32.256 1.536c17.92 1.024 47.104 1.024 65.024 0l32.768-1.536-31.232-86.016C309.248 202.24 293.888 163.84 291.84 163.84c-2.048 0-17.408 38.4-34.304 85.504z" p-id="40213" fill="#a4a5b3"></path></svg>