<?xml version="1.0" standalone="no"?><!DOCTYPE svg PUBLIC "-//W3C//DTD SVG 1.1//EN" "http://www.w3.org/Graphics/SVG/1.1/DTD/svg11.dtd"><svg t="1709705074133" class="icon" viewBox="0 0 1024 1024" version="1.1" xmlns="http://www.w3.org/2000/svg" p-id="43847" xmlns:xlink="http://www.w3.org/1999/xlink" width="200" height="200"><path d="M0 512v512h1024V0H0v512z m322.048-395.776c9.216 9.728 34.304 65.024 76.288 168.96C432.64 370.176 460.8 442.88 460.8 445.952c0 9.728-20.992 30.208-31.232 30.208-12.8 0-27.648-20.992-43.008-61.44l-13.824-35.84H211.456l-16.384 44.032c-18.944 50.176-31.744 60.928-54.272 46.08-7.168-4.608-12.8-13.312-12.8-18.944 0-11.776 114.688-307.712 126.464-326.144 15.36-24.064 47.104-27.648 67.584-7.68zM803.84 232.96c90.624 90.624 94.208 94.72 89.088 108.544-3.584 10.24-8.704 14.848-19.456 15.872-13.312 1.536-23.04-6.144-80.896-64L727.04 227.84v317.44c0 279.552-1.024 318.976-8.192 329.216-10.24 14.336-35.328 15.36-43.008 1.536-7.168-13.824-7.168-714.24 0-728.064 3.584-6.144 10.752-9.728 19.456-9.728 11.264 0 32.256 17.92 108.544 94.72z m-390.144 336.384c9.728 9.728 7.168 39.424-5.12 56.32-6.144 8.704-55.808 69.12-110.592 134.144l-99.84 118.272 119.808 2.56 119.808 2.56v30.72l-145.408 1.536c-130.048 1.024-146.432 0.512-155.136-7.168-5.12-5.12-9.216-13.824-9.216-20.48 0-7.68 38.4-57.344 112.64-146.432l113.152-134.656-96.256-2.56c-52.736-1.536-99.328-4.608-102.4-6.656-7.168-4.608-9.216-25.088-3.072-30.72 6.144-6.656 254.976-4.096 261.632 2.56z" p-id="43848" fill="#a4a5b3"></path><path d="M257.536 249.344l-30.208 86.016 32.256 1.536c17.92 1.024 47.104 1.024 65.024 0l32.768-1.536-31.232-86.016C309.248 202.24 293.888 163.84 291.84 163.84c-2.048 0-17.408 38.4-34.304 85.504z" p-id="43849" fill="#a4a5b3"></path></svg>