<?xml version="1.0" standalone="no"?><!DOCTYPE svg PUBLIC "-//W3C//DTD SVG 1.1//EN" "http://www.w3.org/Graphics/SVG/1.1/DTD/svg11.dtd"><svg t="1729722071569" class="icon" viewBox="0 0 1024 1024" version="1.1" xmlns="http://www.w3.org/2000/svg" p-id="5101" xmlns:xlink="http://www.w3.org/1999/xlink" width="200" height="200"><path d="M293.32 101.733c52.906-50.265 138.598-50.265 191.505 0l104.055 99.015c52.837 50.264 52.837 131.79 0 182.123l-79.079 75.26c-9.284 8.833-24.064 8.833-33.348 0L293.319 283.926c-25.344-23.814-39.67-56.712-39.67-91.097 0-34.385 14.326-67.283 39.67-91.096z m4.15 637.536l360.076-342.558c10.624-12.6 19.418-26.853 26.383-42.484 6.895-15.699 11.398-33.808 13.368-54.327l126.709 120.567c52.907 50.264 52.907 131.859 0 182.192l-335.03 318.803c-52.907 50.264-138.599 50.264-191.506 0-25.344-23.813-39.671-56.712-39.671-91.097 0-34.385 14.327-67.283 39.671-91.096z m-92.094-459.888l229.497 218.273c4.385 4.151 6.86 9.866 6.86 15.837 0 5.97-2.475 11.686-6.86 15.837l-229.497 218.41c-7.68 7.218-18.976 9.348-28.846 5.44-9.837-3.755-16.335-13.008-16.393-23.342V297.215c0-10.19 6.473-19.418 16.323-23.274 9.87-3.908 21.165-1.778 28.845 5.44h0.07z" p-id="5102"></path></svg>