<?xml version="1.0" standalone="no"?><!DOCTYPE svg PUBLIC "-//W3C//DTD SVG 1.1//EN" "http://www.w3.org/Graphics/SVG/1.1/DTD/svg11.dtd"><svg t="1745137428568" class="icon" viewBox="0 0 1024 1024" version="1.1" xmlns="http://www.w3.org/2000/svg" p-id="5584" xmlns:xlink="http://www.w3.org/1999/xlink" width="200" height="200"><path d="M512 128c118.784 0 247.808 71.168 318.464 155.648 55.296 66.56-110.08 79.872-278.016 258.56s-171.52 337.92-232.448 297.472C216.576 771.072 128 645.632 128 512c0-211.968 172.032-384 384-384z m0 64C335.36 192 192 335.36 192 512c0 88.064 50.176 181.248 125.952 246.272l6.656 5.632 3.584-6.656c32.256-58.88 105.472-178.176 169.472-249.856l8.192-8.704c65.024-69.12 180.736-150.528 240.128-188.416l13.824-8.704-11.776-10.752c-60.416-54.272-145.408-93.184-221.184-97.792L512 192z m-6.656 32.256c47.104 0 93.696 11.776 135.68 33.792l15.36 8.704-33.792 54.272a222.037333 222.037333 0 0 0-116.224-33.28h-0.512c-120.32 0-217.6 94.208-217.6 210.432 0 35.328 8.704 68.608 25.6 98.816l7.68 12.8-54.272 35.328a265.216 265.216 0 0 1-43.52-146.432c0.512-152.064 126.464-274.432 281.6-274.432z" p-id="5585" fill="#515151"></path><path d="M512 0C229.376 0 0 229.376 0 512s229.376 512 512 512 512-229.376 512-512-229.376-512-512-512z m0 960A448.170667 448.170667 0 0 1 64 512 448.170667 448.170667 0 0 1 512 64 448.170667 448.170667 0 0 1 960 512 448.170667 448.170667 0 0 1 512 960z" p-id="5586" fill="#515151"></path><path d="M486.4 320c32.768 0 63.488 9.728 89.6 26.112L345.6 576a165.546667 165.546667 0 0 1-25.6-89.088V486.4c0-91.648 74.752-166.4 166.4-166.4z" p-id="5587" fill="#515151"></path></svg>