<?xml version="1.0" standalone="no"?><!DOCTYPE svg PUBLIC "-//W3C//DTD SVG 1.1//EN" "http://www.w3.org/Graphics/SVG/1.1/DTD/svg11.dtd"><svg t="1744377431794" class="icon" viewBox="0 0 1024 1024" version="1.1" xmlns="http://www.w3.org/2000/svg" p-id="3634" xmlns:xlink="http://www.w3.org/1999/xlink" width="200" height="200"><path d="M799.232 773.696l11.648 1.6c90.944 13.12 126.784 32.448 140.672 46.656 7.488 7.52 8.384 13.504 8.384 17.76 0 26.432-35.712 46.88-106.24 60.8l-8.96 1.6c-69.92 12.8-171.072 19.296-318.784 20.544v-162.624l23.168 0.096c103.776 0.64 185.824 5.056 250.112 13.504v0.064z m-567.168 0v141.28l-3.584-0.512c-56.352-9.856-129.6-28.608-156.704-57.664-6.592-6.944-7.68-12-7.776-15.36v-1.664l0.16-0.736a26.88 26.88 0 0 1 7.744-14.624l2.56-2.624c11.712-10.688 30.752-18.656 43.84-23.36 28.064-10.016 65.824-18.144 112.64-24.192l1.12-0.608v0.064zM64 310.112c3.36 1.856 6.656 3.584 10.08 5.12l6.496 3.008c5.76 2.464 11.584 4.864 17.472 6.944 35.616 12.832 75.264 23.232 134.016 30.08v314.656c-58.464 6.784-97.728 15.68-133.12 28.288-5.984 2.24-11.936 4.48-17.856 7.04l-5.216 2.368-4.416 2.112-3.424 1.696L64 713.6V310.112z m896 0.96v400.736l-3.296-1.792-3.712-1.792a244.16 244.16 0 0 0-6.592-3.072l-1.12-0.576-8-3.36-3.712-1.44-7.68-2.816-5.248-1.888-3.712-1.28-5.76-1.76c-2.656-0.832-5.312-1.632-8-2.4l-1.568-0.448a326.592 326.592 0 0 0-9.408-2.56l-4.096-1.024-7.104-1.728-8.192-1.856-9.856-2.016-4.864-0.96-6.784-1.344-12.704-2.24-10.24-1.664a474.112 474.112 0 0 0-9.184-1.344l-4.096-0.64-13.056-1.664-1.344-0.224-7.616-0.96-9.056-1.056-8.8-0.896a2026.464 2026.464 0 0 0-156.8-9.408l-12.768-0.32-23.36-0.416-17.696-0.224-16.128-0.16h-22.4v-289.184l22.4-0.16c128.704-1.024 226.88-8 298.944-21.056l15.552-2.88 4.768-0.992 0.672-0.16 8.576-1.856 9.728-2.24 6.848-1.728 7.488-2.016 7.296-2.144 7.328-2.24a304.64 304.64 0 0 0 14.56-5.152l0.224-0.096 7.328-2.976h0.224l3.648-1.632 4.096-1.888 3.36-1.472 4.128-2.016 3.136-1.664 3.648-1.792v-0.064zM330.048 661.632v-299.328H329.6c20.736 1.28 53.6 2.592 98.56 4.096l-0.16 291.04c-36.352 0.832-66.976 2.24-97.952 4.128v0.064z m523.776-537.92l10.304 2.112C909.984 135.904 960 153.6 960 183.104c0 22.528-41.216 44.128-110.656 58.144l-6.784 1.344c-73.024 13.824-177.504 20.832-316.608 21.28v-162.56l29.888 0.384c136.64 1.952 232.416 9.12 297.984 22.048h0.064-0.064zM233.504 109.728v141.12a553.28 553.28 0 0 1-109.76-23.68l-5.696-2.016-6.56-2.464c-15.744-6.112-36.064-16.032-44.064-28.736l-0.512-0.736-0.448-0.896A20.544 20.544 0 0 1 64 183.008c0-8.064 9.568-18.368 26.272-28.288 19.424-11.52 47.136-21.952 82.528-31.2 21.856-5.536 38.528-9.92 60.704-13.824z" fill="#000000" p-id="3635"></path></svg>