<?xml version="1.0" standalone="no"?><!DOCTYPE svg PUBLIC "-//W3C//DTD SVG 1.1//EN" "http://www.w3.org/Graphics/SVG/1.1/DTD/svg11.dtd"><svg t="1745137337038" class="icon" viewBox="0 0 1536 1024" version="1.1" xmlns="http://www.w3.org/2000/svg" p-id="4375" xmlns:xlink="http://www.w3.org/1999/xlink" width="300" height="200"><path d="M1269.906286 118.052571c-31.817143 0.512-50.541714 14.409143-56.466286 40.96a41.398857 41.398857 0 0 0 29.988571 9.581715c24.137143-1.024 47.616-19.236571 40.96-50.029715-5.632-0.512-10.459429-0.512-14.482285-0.512zM1432.868571 28.452571h-2.925714c-22.235429 0.512-25.965714 13.092571-74.678857 24.576-49.225143 12.068571-96.841143 0.512-149.796571 22.747429-158.134857 66.048-191.853714 295.058286-335.506286 376.393143-107.52 60.708571-211.090286 87.771429-308.443429 117.76-63.634286 19.748571-127.341714 43.300571-185.709714 93.110857-45.202286 39.058286-56.978286 68.973714-104.009143 117.686857-48.201143 49.225143-194.779429-38.034286-266.971428 25.965714a14.262857 14.262857 0 0 0-1.097143 19.748572l1.024 1.097143c15.506286 13.897143 45.202286 45.714286 73.289143 55.881143-9.069714 16.822857-59.392 66.633143-49.225143 91.501714 10.752 26.477714 135.899429 8.338286 251.245714-61.220572 53.467429-32.402286 96.841143-79.506286 180.297143-90.185142 108.105143-14.409143 233.325714 9.069714 359.058286 27.062857-18.724571 55.369143-55.954286 92.525714-85.869715 136.411428-9.142857 10.166857 18.724571 10.678857 50.468572 4.827429 57.051429-14.482286 98.742857-25.161143 141.897143-50.614857 52.955429-30.72 61.220571-109.933714 126.244571-127.268572 31.305143 48.128 109.933714 64.950857 170.130286 38.985143a40.667429 40.667429 0 0 0 9.654857-4.754286c7.168-6.729143 2.925714-13.897143-1.097143-19.309714-2.413714-1.828571-4.242286-4.242286-5.851429-5.851428-34.304-36.644571-41.472-122.514286-26.550857-164.790858 17.408-47.616 34.304-123.904 51.638857-187.026285 18.724571-67.437714 25.161143-153.307429 48.201143-187.538286 33.645714-51.638857 70.875429-69.851429 103.497143-99.254857 32.402286-29.403429 61.805714-57.782857 61.293714-124.342857-1.609143-19.602286-11.776-31.597714-30.208-31.597715z m2.925715 69.778286c-6.729143 46.299429-36.132571 71.460571-70.948572 96.329143-30.72 21.650286-64.146286 41.984-85.284571 75.702857-22.235429 34.230857-36.132571 151.405714-70.363429 267.556572-28.379429 96.256-70.363429 191.268571-143.140571 237.568a8.192 8.192 0 0 1-12.068572-4.827429c-4.827429-27.062857-4.242286-75.702857-12.507428-60.196571-10.24 29.988571-22.235429 58.294857-36.132572 84.845714-42.788571 81.042286-104.082286 143.579429-203.849142 167.716571a8.923429 8.923429 0 0 1-10.752-6.729143 11.483429 11.483429 0 0 1 1.097142-7.168c45.714286-63.707429 87.186286-132.169143 92.013715-236.763428 0.512-9.142857-10.678857-13.165714-16.822857-5.924572-21.723429 26.477714-27.062857 90.185143-58.88 109.933715a508.928 508.928 0 0 1-75.702858 1.097143c-104.082286-5.851429-211.090286-38.034286-308.443428-5.851429-66.121143 21.065143-135.899429 81.846857-192.365714 106.422857-66.121143 28.379429-97.353143 55.369143-180.882286 53.540572-8.265143-11.556571 34.816-61.293714 49.225143-82.432 4.827429-6.656-5.339429-13.897143-14.921143-18.724572-22.747429-10.166857-45.275429-38.546286-69.046857-49.225143 2.925714-5.339429 13.897143-11.483429 19.748571-14.994285 54.637714-31.817143 199.68 36.132571 238.665143-2.413715 24.137143-23.552 40.374857-44.397714 56.466286-68.461714 15.506286-23.552 39.570286-48.128 65.024-68.461714 10.678857-8.338286 21.650286-16.822857 32.329143-24.137143 42.788571-28.818286 66.121143-31.232 120.905142-51.565714 70.363429-25.965714 157.037714-48.713143 232.009143-77.604572 46.226286-17.92 96.841143-39.570286 138.24-70.363428 9.654857-7.241143 19.309714-14.994286 27.574857-23.552 117.76-114.761143 140.726857-316.708571 324.022858-335.506286 22.162286-2.340571 38.034286-2.925714 54.564571-3.437714 18.724571-0.512 36.571429-4.827429 55.369143-13.897143 5.339429-2.413714 39.058286-22.747429 50.541714-13.165715 10.24 5.632 4.827429 40.96 4.315429 44.690286z" fill="#515151" p-id="4376"></path></svg>